<?xml version="1.0" encoding="UTF-8" standalone="no"?>
<!DOCTYPE svg PUBLIC "-//W3C//DTD SVG 1.0//EN"
 "http://www.w3.org/TR/2001/REC-SVG-20010904/DTD/svg10.dtd" [
 <!ATTLIST svg xmlns:xlink CDATA #FIXED "http://www.w3.org/1999/xlink">
]>
<!-- Generated by Graphviz version 2.20.2 (Tue Mar &#160;2 19:03:41 UTC 2010)
     For user: (papa) papa,,, -->
<!-- Title: unix Pages: 1 -->
<svg width="100pt" height="116pt"
 viewBox="0.00 0.00 100.00 116.00" xmlns="http://www.w3.org/2000/svg" xmlns:xlink="http://www.w3.org/1999/xlink">
<g id="graph0" class="graph" transform="scale(1 1) rotate(0) translate(4 112)">
<title>unix</title>
<polygon style="fill:white;stroke:white;" points="-4,4 -4,-112 96,-112 96,4 -4,4"/>
<!-- X -->
<g id="node1" class="node"><title>X</title>
<polygon style="fill:none;stroke:black;" points="10,-72 10,-108 64,-108 64,-72 10,-72"/>
<text text-anchor="middle" x="37" y="-91.4" style="font-family:Times New Roman;font-size:14.00;">X</text>
</g>
<!-- 0 -->
<g id="node3" class="node"><title>0</title>
<polygon style="fill:none;stroke:black;" points="0,-0 0,-36 75,-36 75,-0 0,-0"/>
<text text-anchor="middle" x="12" y="-19.4" style="font-family:Times New Roman;font-size:14.00;">0</text>
<polyline style="fill:none;stroke:black;" points="25,-0 25,-36 "/>
<text text-anchor="middle" x="37" y="-19.4" style="font-family:Times New Roman;font-size:14.00;">L</text>
<polyline style="fill:none;stroke:black;" points="49,-0 49,-36 "/>
<text text-anchor="middle" x="62" y="-19.4" style="font-family:Times New Roman;font-size:14.00;">R</text>
</g>
<!-- X&#45;&gt;0 -->
<g id="edge2" class="edge"><title>X&#45;&gt;0</title>
<path style="fill:none;stroke:black;" d="M37,-72C37,-64 37,-55 37,-46"/>
<polygon style="fill:black;stroke:black;" points="40.5001,-46 37,-36 33.5001,-46 40.5001,-46"/>
</g>
<!-- 0&#45;&gt;X -->
<g id="edge4" class="edge"><title>0&#45;&gt;X</title>
<path style="fill:none;stroke:black;" d="M37,-36C37,-44 37,-53 37,-62"/>
<polygon style="fill:black;stroke:black;" points="33.5001,-62 37,-72 40.5001,-62 33.5001,-62"/>
</g>
<!-- 0&#45;&gt;0 -->
<g id="edge6" class="edge"><title>0&#45;&gt;0</title>
<path style="fill:none;stroke:black;" d="M75,-29C86,-35 92,-31 92,-18 92,-10 90,-5 85,-4"/>
<polygon style="fill:black;stroke:black;" points="83.5725,-0.774059 75,-7 85.584,-7.47885 83.5725,-0.774059"/>
</g>
</g>
</svg>
