<?xml version="1.0" encoding="UTF-8" standalone="no"?>
<!DOCTYPE svg PUBLIC "-//W3C//DTD SVG 1.0//EN"
 "http://www.w3.org/TR/2001/REC-SVG-20010904/DTD/svg10.dtd" [
 <!ATTLIST svg xmlns:xlink CDATA #FIXED "http://www.w3.org/1999/xlink">
]>
<!-- Generated by Graphviz version 2.20.2 (Tue Mar &#160;2 19:03:41 UTC 2010)
     For user: (papa) papa,,, -->
<!-- Title: unix Pages: 1 -->
<svg width="111pt" height="142pt"
 viewBox="0.00 0.00 111.00 142.00" xmlns="http://www.w3.org/2000/svg" xmlns:xlink="http://www.w3.org/1999/xlink">
<g id="graph0" class="graph" transform="scale(1 1) rotate(0) translate(4 138)">
<title>unix</title>
<polygon style="fill:white;stroke:white;" points="-4,4 -4,-138 107,-138 107,4 -4,4"/>
<!-- X -->
<g id="node1" class="node"><title>X</title>
<polygon style="fill:none;stroke:black;" points="10,-90 10,-126 64,-126 64,-90 10,-90"/>
<text text-anchor="middle" x="37" y="-109.4" style="font-family:Times New Roman;font-size:14.00;">X</text>
</g>
<!-- 0 -->
<g id="node3" class="node"><title>0</title>
<polygon style="fill:none;stroke:black;" points="0,-18 0,-54 75,-54 75,-18 0,-18"/>
<text text-anchor="middle" x="12" y="-37.4" style="font-family:Times New Roman;font-size:14.00;">0</text>
<polyline style="fill:none;stroke:black;" points="25,-18 25,-54 "/>
<text text-anchor="middle" x="37" y="-37.4" style="font-family:Times New Roman;font-size:14.00;">L</text>
<polyline style="fill:none;stroke:black;" points="49,-18 49,-54 "/>
<text text-anchor="middle" x="62" y="-37.4" style="font-family:Times New Roman;font-size:14.00;">R</text>
</g>
<!-- X&#45;&gt;0 -->
<g id="edge2" class="edge"><title>X&#45;&gt;0</title>
<path style="fill:none;stroke:black;" d="M37,-90C37,-82 37,-73 37,-64"/>
<polygon style="fill:black;stroke:black;" points="40.5001,-64 37,-54 33.5001,-64 40.5001,-64"/>
</g>
<!-- 0&#45;&gt;X -->
<g id="edge4" class="edge"><title>0&#45;&gt;X</title>
<path style="fill:none;stroke:black;" d="M37,-17C37,-1 62,-7 74,-18 107,-52 99,-93 64,-126 59,-131 50,-134 44,-134"/>
<polygon style="fill:black;stroke:black;" points="46.546,-131.596 37,-127 41.5962,-136.546 46.546,-131.596"/>
</g>
<!-- 0&#45;&gt;0 -->
<g id="edge6" class="edge"><title>0&#45;&gt;0</title>
<path style="fill:none;stroke:black;" d="M62,-18C80,-0 92,-0 92,-36 92,-67 83,-71 70,-61"/>
<polygon style="fill:black;stroke:black;" points="71.8306,-57.9511 62,-54 67.221,-63.2191 71.8306,-57.9511"/>
</g>
</g>
</svg>
