<?xml version="1.0" encoding="UTF-8" standalone="no"?>
<!DOCTYPE svg PUBLIC "-//W3C//DTD SVG 1.0//EN"
 "http://www.w3.org/TR/2001/REC-SVG-20010904/DTD/svg10.dtd" [
 <!ATTLIST svg xmlns:xlink CDATA #FIXED "http://www.w3.org/1999/xlink">
]>
<!-- Generated by Graphviz version 2.20.2 (Tue Mar &#160;2 19:03:41 UTC 2010)
     For user: (papa) papa,,, -->
<!-- Title: unix Pages: 1 -->
<svg width="100pt" height="142pt"
 viewBox="0.00 0.00 100.00 142.00" xmlns="http://www.w3.org/2000/svg" xmlns:xlink="http://www.w3.org/1999/xlink">
<g id="graph0" class="graph" transform="scale(1 1) rotate(0) translate(4 138)">
<title>unix</title>
<polygon style="fill:white;stroke:white;" points="-4,4 -4,-138 96,-138 96,4 -4,4"/>
<!-- X -->
<g id="node1" class="node"><title>X</title>
<polygon style="fill:none;stroke:black;" points="35,-90 35,-126 89,-126 89,-90 35,-90"/>
<text text-anchor="middle" x="62" y="-109.4" style="font-family:Times New Roman;font-size:14.00;">X</text>
</g>
<!-- 0 -->
<g id="node3" class="node"><title>0</title>
<polygon style="fill:none;stroke:black;" points="0,-18 0,-54 75,-54 75,-18 0,-18"/>
<text text-anchor="middle" x="12" y="-37.4" style="font-family:Times New Roman;font-size:14.00;">0</text>
<polyline style="fill:none;stroke:black;" points="25,-18 25,-54 "/>
<text text-anchor="middle" x="37" y="-37.4" style="font-family:Times New Roman;font-size:14.00;">L</text>
<polyline style="fill:none;stroke:black;" points="49,-18 49,-54 "/>
<text text-anchor="middle" x="62" y="-37.4" style="font-family:Times New Roman;font-size:14.00;">R</text>
</g>
<!-- X&#45;&gt;0 -->
<g id="edge2" class="edge"><title>X&#45;&gt;0</title>
<path style="fill:none;stroke:black;" d="M62,-90C62,-82 62,-73 62,-64"/>
<polygon style="fill:black;stroke:black;" points="65.5001,-64 62,-54 58.5001,-64 65.5001,-64"/>
</g>
<!-- 0&#45;&gt;X -->
<g id="edge6" class="edge"><title>0&#45;&gt;X</title>
<path style="fill:none;stroke:black;" d="M62,-17C62,32 123,-90 89,-126 84,-131 75,-134 69,-134"/>
<polygon style="fill:black;stroke:black;" points="71.546,-131.596 62,-127 66.5962,-136.546 71.546,-131.596"/>
</g>
<!-- 0&#45;&gt;0 -->
<g id="edge4" class="edge"><title>0&#45;&gt;0</title>
<path style="fill:none;stroke:black;" d="M37,-18C55,-0 92,-0 92,-36 92,-67 64,-71 45,-60"/>
<polygon style="fill:black;stroke:black;" points="47.1,-57.2 37,-54 42.9,-62.8 47.1,-57.2"/>
</g>
</g>
</svg>
