<?xml version="1.0" encoding="UTF-8" standalone="no"?>
<!DOCTYPE svg PUBLIC "-//W3C//DTD SVG 1.0//EN"
 "http://www.w3.org/TR/2001/REC-SVG-20010904/DTD/svg10.dtd" [
 <!ATTLIST svg xmlns:xlink CDATA #FIXED "http://www.w3.org/1999/xlink">
]>
<!-- Generated by Graphviz version 2.20.2 (Tue Mar &#160;2 19:03:41 UTC 2010)
     For user: (papa) papa,,, -->
<!-- Title: unix Pages: 1 -->
<svg width="424pt" height="1268pt"
 viewBox="0.00 0.00 424.00 1268.00" xmlns="http://www.w3.org/2000/svg" xmlns:xlink="http://www.w3.org/1999/xlink">
<g id="graph0" class="graph" transform="scale(1 1) rotate(0) translate(4 1264)">
<title>unix</title>
<polygon style="fill:white;stroke:white;" points="-4,4 -4,-1264 420,-1264 420,4 -4,4"/>
<!-- X -->
<g id="node1" class="node"><title>X</title>
<polygon style="fill:none;stroke:black;" points="92,-1224 92,-1260 146,-1260 146,-1224 92,-1224"/>
<text text-anchor="middle" x="119" y="-1243.4" style="font-family:Times New Roman;font-size:14.00;">X</text>
</g>
<!-- 19 -->
<g id="node3" class="node"><title>19</title>
<polygon style="fill:none;stroke:black;" points="73,-1152 73,-1188 157,-1188 157,-1152 73,-1152"/>
<text text-anchor="middle" x="90" y="-1171.4" style="font-family:Times New Roman;font-size:14.00;">19</text>
<polyline style="fill:none;stroke:black;" points="107,-1152 107,-1188 "/>
<text text-anchor="middle" x="119" y="-1171.4" style="font-family:Times New Roman;font-size:14.00;">L</text>
<polyline style="fill:none;stroke:black;" points="131,-1152 131,-1188 "/>
<text text-anchor="middle" x="144" y="-1171.4" style="font-family:Times New Roman;font-size:14.00;">R</text>
</g>
<!-- X&#45;&gt;19 -->
<g id="edge2" class="edge"><title>X&#45;&gt;19</title>
<path style="fill:none;stroke:black;" d="M119,-1224C119,-1216 119,-1207 119,-1198"/>
<polygon style="fill:black;stroke:black;" points="122.5,-1198 119,-1188 115.5,-1198 122.5,-1198"/>
</g>
<!-- 19&#45;&gt;X -->
<g id="edge80" class="edge"><title>19&#45;&gt;X</title>
<path style="fill:none;stroke:black;" d="M119,-1188C119,-1196 119,-1205 119,-1214"/>
<polygon style="fill:black;stroke:black;" points="115.5,-1214 119,-1224 122.5,-1214 115.5,-1214"/>
</g>
<!-- 7 -->
<g id="node31" class="node"><title>7</title>
<polygon style="fill:none;stroke:black;" points="175,-1080 175,-1116 250,-1116 250,-1080 175,-1080"/>
<text text-anchor="middle" x="187" y="-1099.4" style="font-family:Times New Roman;font-size:14.00;">7</text>
<polyline style="fill:none;stroke:black;" points="200,-1080 200,-1116 "/>
<text text-anchor="middle" x="212" y="-1099.4" style="font-family:Times New Roman;font-size:14.00;">L</text>
<polyline style="fill:none;stroke:black;" points="224,-1080 224,-1116 "/>
<text text-anchor="middle" x="237" y="-1099.4" style="font-family:Times New Roman;font-size:14.00;">R</text>
</g>
<!-- 19&#45;&gt;7 -->
<g id="edge82" class="edge"><title>19&#45;&gt;7</title>
<path style="fill:none;stroke:black;" d="M157,-1152C171,-1136 180,-1134 192,-1123"/>
<polygon style="fill:black;stroke:black;" points="194.779,-1125.22 200,-1116 190.169,-1119.95 194.779,-1125.22"/>
</g>
<!-- 0 -->
<g id="node4" class="node"><title>0</title>
<polygon style="fill:none;stroke:black;" points="107,-360 107,-396 182,-396 182,-360 107,-360"/>
<text text-anchor="middle" x="119" y="-379.4" style="font-family:Times New Roman;font-size:14.00;">0</text>
<polyline style="fill:none;stroke:black;" points="132,-360 132,-396 "/>
<text text-anchor="middle" x="144" y="-379.4" style="font-family:Times New Roman;font-size:14.00;">L</text>
<polyline style="fill:none;stroke:black;" points="156,-360 156,-396 "/>
<text text-anchor="middle" x="169" y="-379.4" style="font-family:Times New Roman;font-size:14.00;">R</text>
</g>
<!-- 1 -->
<g id="node6" class="node"><title>1</title>
<polygon style="fill:none;stroke:black;" points="192,-288 192,-324 267,-324 267,-288 192,-288"/>
<text text-anchor="middle" x="204" y="-307.4" style="font-family:Times New Roman;font-size:14.00;">1</text>
<polyline style="fill:none;stroke:black;" points="217,-288 217,-324 "/>
<text text-anchor="middle" x="229" y="-307.4" style="font-family:Times New Roman;font-size:14.00;">L</text>
<polyline style="fill:none;stroke:black;" points="241,-288 241,-324 "/>
<text text-anchor="middle" x="254" y="-307.4" style="font-family:Times New Roman;font-size:14.00;">R</text>
</g>
<!-- 0&#45;&gt;1 -->
<g id="edge4" class="edge"><title>0&#45;&gt;1</title>
<path style="fill:none;stroke:black;" d="M156,-360C184,-335 204,-346 232,-330"/>
<polygon style="fill:black;stroke:black;" points="234.621,-332.459 241,-324 230.738,-326.635 234.621,-332.459"/>
</g>
<!-- 12 -->
<g id="node8" class="node"><title>12</title>
<polygon style="fill:none;stroke:black;" points="98,-432 98,-468 182,-468 182,-432 98,-432"/>
<text text-anchor="middle" x="115" y="-451.4" style="font-family:Times New Roman;font-size:14.00;">12</text>
<polyline style="fill:none;stroke:black;" points="132,-432 132,-468 "/>
<text text-anchor="middle" x="144" y="-451.4" style="font-family:Times New Roman;font-size:14.00;">L</text>
<polyline style="fill:none;stroke:black;" points="156,-432 156,-468 "/>
<text text-anchor="middle" x="169" y="-451.4" style="font-family:Times New Roman;font-size:14.00;">R</text>
</g>
<!-- 0&#45;&gt;12 -->
<g id="edge6" class="edge"><title>0&#45;&gt;12</title>
<path style="fill:none;stroke:black;" d="M169,-396C169,-404 169,-413 169,-422"/>
<polygon style="fill:black;stroke:black;" points="165.5,-422 169,-432 172.5,-422 165.5,-422"/>
</g>
<!-- 4 -->
<g id="node10" class="node"><title>4</title>
<polygon style="fill:none;stroke:black;" points="148,-216 148,-252 223,-252 223,-216 148,-216"/>
<text text-anchor="middle" x="160" y="-235.4" style="font-family:Times New Roman;font-size:14.00;">4</text>
<polyline style="fill:none;stroke:black;" points="173,-216 173,-252 "/>
<text text-anchor="middle" x="185" y="-235.4" style="font-family:Times New Roman;font-size:14.00;">L</text>
<polyline style="fill:none;stroke:black;" points="197,-216 197,-252 "/>
<text text-anchor="middle" x="210" y="-235.4" style="font-family:Times New Roman;font-size:14.00;">R</text>
</g>
<!-- 1&#45;&gt;4 -->
<g id="edge8" class="edge"><title>1&#45;&gt;4</title>
<path style="fill:none;stroke:black;" d="M224,-288C222,-280 220,-271 218,-262"/>
<polygon style="fill:black;stroke:black;" points="221.226,-260.573 215,-252 214.521,-262.584 221.226,-260.573"/>
</g>
<!-- 9 -->
<g id="node12" class="node"><title>9</title>
<polygon style="fill:none;stroke:black;" points="190,-720 190,-756 265,-756 265,-720 190,-720"/>
<text text-anchor="middle" x="202" y="-739.4" style="font-family:Times New Roman;font-size:14.00;">9</text>
<polyline style="fill:none;stroke:black;" points="215,-720 215,-756 "/>
<text text-anchor="middle" x="227" y="-739.4" style="font-family:Times New Roman;font-size:14.00;">L</text>
<polyline style="fill:none;stroke:black;" points="239,-720 239,-756 "/>
<text text-anchor="middle" x="252" y="-739.4" style="font-family:Times New Roman;font-size:14.00;">R</text>
</g>
<!-- 1&#45;&gt;9 -->
<g id="edge10" class="edge"><title>1&#45;&gt;9</title>
<path style="fill:none;stroke:black;" d="M254,-324C254,-352 254,-404 254,-449 254,-594 254,-594 254,-594 254,-634 244,-681 236,-710"/>
<polygon style="fill:black;stroke:black;" points="232.521,-709.416 233,-720 239.226,-711.427 232.521,-709.416"/>
</g>
<!-- 12&#45;&gt;0 -->
<g id="edge54" class="edge"><title>12&#45;&gt;0</title>
<path style="fill:none;stroke:black;" d="M163,-432C160,-424 157,-414 153,-406"/>
<polygon style="fill:black;stroke:black;" points="156.226,-404.573 150,-396 149.521,-406.584 156.226,-404.573"/>
</g>
<!-- 14 -->
<g id="node46" class="node"><title>14</title>
<polygon style="fill:none;stroke:black;" points="129,-72 129,-108 213,-108 213,-72 129,-72"/>
<text text-anchor="middle" x="146" y="-91.4" style="font-family:Times New Roman;font-size:14.00;">14</text>
<polyline style="fill:none;stroke:black;" points="163,-72 163,-108 "/>
<text text-anchor="middle" x="175" y="-91.4" style="font-family:Times New Roman;font-size:14.00;">L</text>
<polyline style="fill:none;stroke:black;" points="187,-72 187,-108 "/>
<text text-anchor="middle" x="200" y="-91.4" style="font-family:Times New Roman;font-size:14.00;">R</text>
</g>
<!-- 12&#45;&gt;14 -->
<g id="edge52" class="edge"><title>12&#45;&gt;14</title>
<path style="fill:none;stroke:black;" d="M132,-432C89,-376 38,-375 38,-306 38,-306 38,-306 38,-233 38,-185 61,-175 96,-144 117,-124 133,-128 155,-114"/>
<polygon style="fill:black;stroke:black;" points="157.1,-116.8 163,-108 152.9,-111.2 157.1,-116.8"/>
</g>
<!-- 10 -->
<g id="node22" class="node"><title>10</title>
<polygon style="fill:none;stroke:black;" points="284,-936 284,-972 368,-972 368,-936 284,-936"/>
<text text-anchor="middle" x="301" y="-955.4" style="font-family:Times New Roman;font-size:14.00;">10</text>
<polyline style="fill:none;stroke:black;" points="318,-936 318,-972 "/>
<text text-anchor="middle" x="330" y="-955.4" style="font-family:Times New Roman;font-size:14.00;">L</text>
<polyline style="fill:none;stroke:black;" points="342,-936 342,-972 "/>
<text text-anchor="middle" x="355" y="-955.4" style="font-family:Times New Roman;font-size:14.00;">R</text>
</g>
<!-- 4&#45;&gt;10 -->
<g id="edge20" class="edge"><title>4&#45;&gt;10</title>
<path style="fill:none;stroke:black;" d="M197,-252C226,-276 243,-265 275,-288 347,-339 379,-349 413,-432 464,-559 368,-599 368,-737 368,-810 368,-810 368,-810 368,-850 363,-897 359,-926"/>
<polygon style="fill:black;stroke:black;" points="355.512,-925.701 358,-936 362.478,-926.398 355.512,-925.701"/>
</g>
<!-- 13 -->
<g id="node24" class="node"><title>13</title>
<polygon style="fill:none;stroke:black;" points="105,-144 105,-180 189,-180 189,-144 105,-144"/>
<text text-anchor="middle" x="122" y="-163.4" style="font-family:Times New Roman;font-size:14.00;">13</text>
<polyline style="fill:none;stroke:black;" points="139,-144 139,-180 "/>
<text text-anchor="middle" x="151" y="-163.4" style="font-family:Times New Roman;font-size:14.00;">L</text>
<polyline style="fill:none;stroke:black;" points="163,-144 163,-180 "/>
<text text-anchor="middle" x="176" y="-163.4" style="font-family:Times New Roman;font-size:14.00;">R</text>
</g>
<!-- 4&#45;&gt;13 -->
<g id="edge22" class="edge"><title>4&#45;&gt;13</title>
<path style="fill:none;stroke:black;" d="M201,-216C197,-208 193,-198 188,-189"/>
<polygon style="fill:black;stroke:black;" points="191.26,-187.717 184,-180 184.863,-190.56 191.26,-187.717"/>
</g>
<!-- 2 -->
<g id="node13" class="node"><title>2</title>
<polygon style="fill:none;stroke:black;" points="220,-864 220,-900 295,-900 295,-864 220,-864"/>
<text text-anchor="middle" x="232" y="-883.4" style="font-family:Times New Roman;font-size:14.00;">2</text>
<polyline style="fill:none;stroke:black;" points="245,-864 245,-900 "/>
<text text-anchor="middle" x="257" y="-883.4" style="font-family:Times New Roman;font-size:14.00;">L</text>
<polyline style="fill:none;stroke:black;" points="269,-864 269,-900 "/>
<text text-anchor="middle" x="282" y="-883.4" style="font-family:Times New Roman;font-size:14.00;">R</text>
</g>
<!-- 9&#45;&gt;2 -->
<g id="edge42" class="edge"><title>9&#45;&gt;2</title>
<path style="fill:none;stroke:black;" d="M261,-756C266,-766 271,-779 273,-792 276,-812 272,-836 267,-854"/>
<polygon style="fill:black;stroke:black;" points="263.521,-853.416 264,-864 270.226,-855.427 263.521,-853.416"/>
</g>
<!-- 18 -->
<g id="node38" class="node"><title>18</title>
<polygon style="fill:none;stroke:black;" points="104,-648 104,-684 188,-684 188,-648 104,-648"/>
<text text-anchor="middle" x="121" y="-667.4" style="font-family:Times New Roman;font-size:14.00;">18</text>
<polyline style="fill:none;stroke:black;" points="138,-648 138,-684 "/>
<text text-anchor="middle" x="150" y="-667.4" style="font-family:Times New Roman;font-size:14.00;">L</text>
<polyline style="fill:none;stroke:black;" points="162,-648 162,-684 "/>
<text text-anchor="middle" x="175" y="-667.4" style="font-family:Times New Roman;font-size:14.00;">R</text>
</g>
<!-- 9&#45;&gt;18 -->
<g id="edge40" class="edge"><title>9&#45;&gt;18</title>
<path style="fill:none;stroke:black;" d="M215,-720C197,-702 185,-703 170,-691"/>
<polygon style="fill:black;stroke:black;" points="171.831,-687.951 162,-684 167.221,-693.219 171.831,-687.951"/>
</g>
<!-- 3 -->
<g id="node15" class="node"><title>3</title>
<polygon style="fill:none;stroke:black;" points="190,-792 190,-828 265,-828 265,-792 190,-792"/>
<text text-anchor="middle" x="202" y="-811.4" style="font-family:Times New Roman;font-size:14.00;">3</text>
<polyline style="fill:none;stroke:black;" points="215,-792 215,-828 "/>
<text text-anchor="middle" x="227" y="-811.4" style="font-family:Times New Roman;font-size:14.00;">L</text>
<polyline style="fill:none;stroke:black;" points="239,-792 239,-828 "/>
<text text-anchor="middle" x="252" y="-811.4" style="font-family:Times New Roman;font-size:14.00;">R</text>
</g>
<!-- 2&#45;&gt;3 -->
<g id="edge12" class="edge"><title>2&#45;&gt;3</title>
<path style="fill:none;stroke:black;" d="M249,-864C246,-856 242,-846 239,-838"/>
<polygon style="fill:black;stroke:black;" points="241.964,-835.985 235,-828 235.464,-838.585 241.964,-835.985"/>
</g>
<!-- 8 -->
<g id="node17" class="node"><title>8</title>
<polygon style="fill:none;stroke:black;" points="211,-1008 211,-1044 286,-1044 286,-1008 211,-1008"/>
<text text-anchor="middle" x="223" y="-1027.4" style="font-family:Times New Roman;font-size:14.00;">8</text>
<polyline style="fill:none;stroke:black;" points="236,-1008 236,-1044 "/>
<text text-anchor="middle" x="248" y="-1027.4" style="font-family:Times New Roman;font-size:14.00;">L</text>
<polyline style="fill:none;stroke:black;" points="260,-1008 260,-1044 "/>
<text text-anchor="middle" x="273" y="-1027.4" style="font-family:Times New Roman;font-size:14.00;">R</text>
</g>
<!-- 2&#45;&gt;8 -->
<g id="edge14" class="edge"><title>2&#45;&gt;8</title>
<path style="fill:none;stroke:black;" d="M278,-900C272,-925 261,-969 254,-998"/>
<polygon style="fill:black;stroke:black;" points="250.529,-997.508 252,-1008 257.393,-998.881 250.529,-997.508"/>
</g>
<!-- 3&#45;&gt;9 -->
<g id="edge18" class="edge"><title>3&#45;&gt;9</title>
<path style="fill:none;stroke:black;" d="M252,-792C252,-784 252,-775 252,-766"/>
<polygon style="fill:black;stroke:black;" points="255.5,-766 252,-756 248.5,-766 255.5,-766"/>
</g>
<!-- 5 -->
<g id="node19" class="node"><title>5</title>
<polygon style="fill:none;stroke:black;" points="90,-576 90,-612 165,-612 165,-576 90,-576"/>
<text text-anchor="middle" x="102" y="-595.4" style="font-family:Times New Roman;font-size:14.00;">5</text>
<polyline style="fill:none;stroke:black;" points="115,-576 115,-612 "/>
<text text-anchor="middle" x="127" y="-595.4" style="font-family:Times New Roman;font-size:14.00;">L</text>
<polyline style="fill:none;stroke:black;" points="139,-576 139,-612 "/>
<text text-anchor="middle" x="152" y="-595.4" style="font-family:Times New Roman;font-size:14.00;">R</text>
</g>
<!-- 3&#45;&gt;5 -->
<g id="edge16" class="edge"><title>3&#45;&gt;5</title>
<path style="fill:none;stroke:black;" d="M215,-792C168,-737 124,-749 95,-684 88,-669 90,-663 95,-648 96,-645 102,-632 110,-621"/>
<polygon style="fill:black;stroke:black;" points="113.203,-622.441 115,-612 107.084,-619.042 113.203,-622.441"/>
</g>
<!-- 8&#45;&gt;10 -->
<g id="edge38" class="edge"><title>8&#45;&gt;10</title>
<path style="fill:none;stroke:black;" d="M286,-1008C297,-994 302,-990 311,-980"/>
<polygon style="fill:black;stroke:black;" points="314.049,-981.831 318,-972 308.781,-977.221 314.049,-981.831"/>
</g>
<!-- 11 -->
<g id="node33" class="node"><title>11</title>
<polygon style="fill:none;stroke:black;" points="105,-864 105,-900 189,-900 189,-864 105,-864"/>
<text text-anchor="middle" x="122" y="-883.4" style="font-family:Times New Roman;font-size:14.00;">11</text>
<polyline style="fill:none;stroke:black;" points="139,-864 139,-900 "/>
<text text-anchor="middle" x="151" y="-883.4" style="font-family:Times New Roman;font-size:14.00;">L</text>
<polyline style="fill:none;stroke:black;" points="163,-864 163,-900 "/>
<text text-anchor="middle" x="176" y="-883.4" style="font-family:Times New Roman;font-size:14.00;">R</text>
</g>
<!-- 8&#45;&gt;11 -->
<g id="edge36" class="edge"><title>8&#45;&gt;11</title>
<path style="fill:none;stroke:black;" d="M237,-1008C225,-989 207,-960 190,-936 180,-922 176,-918 169,-908"/>
<polygon style="fill:black;stroke:black;" points="171.8,-905.9 163,-900 166.2,-910.1 171.8,-905.9"/>
</g>
<!-- 6 -->
<g id="node26" class="node"><title>6</title>
<polygon style="fill:none;stroke:black;" points="41,-504 41,-540 116,-540 116,-504 41,-504"/>
<text text-anchor="middle" x="53" y="-523.4" style="font-family:Times New Roman;font-size:14.00;">6</text>
<polyline style="fill:none;stroke:black;" points="66,-504 66,-540 "/>
<text text-anchor="middle" x="78" y="-523.4" style="font-family:Times New Roman;font-size:14.00;">L</text>
<polyline style="fill:none;stroke:black;" points="90,-504 90,-540 "/>
<text text-anchor="middle" x="103" y="-523.4" style="font-family:Times New Roman;font-size:14.00;">R</text>
</g>
<!-- 5&#45;&gt;6 -->
<g id="edge24" class="edge"><title>5&#45;&gt;6</title>
<path style="fill:none;stroke:black;" d="M115,-576C106,-563 102,-558 96,-549"/>
<polygon style="fill:black;stroke:black;" points="98.4592,-546.379 90,-540 92.6349,-550.262 98.4592,-546.379"/>
</g>
<!-- 15 -->
<g id="node28" class="node"><title>15</title>
<polygon style="fill:none;stroke:black;" points="141,-504 141,-540 225,-540 225,-504 141,-504"/>
<text text-anchor="middle" x="158" y="-523.4" style="font-family:Times New Roman;font-size:14.00;">15</text>
<polyline style="fill:none;stroke:black;" points="175,-504 175,-540 "/>
<text text-anchor="middle" x="187" y="-523.4" style="font-family:Times New Roman;font-size:14.00;">L</text>
<polyline style="fill:none;stroke:black;" points="199,-504 199,-540 "/>
<text text-anchor="middle" x="212" y="-523.4" style="font-family:Times New Roman;font-size:14.00;">R</text>
</g>
<!-- 5&#45;&gt;15 -->
<g id="edge26" class="edge"><title>5&#45;&gt;15</title>
<path style="fill:none;stroke:black;" d="M161,-576C165,-568 169,-558 174,-549"/>
<polygon style="fill:black;stroke:black;" points="177.137,-550.56 178,-540 170.74,-547.717 177.137,-550.56"/>
</g>
<!-- 10&#45;&gt;2 -->
<g id="edge46" class="edge"><title>10&#45;&gt;2</title>
<path style="fill:none;stroke:black;" d="M342,-936C326,-920 316,-918 303,-907"/>
<polygon style="fill:black;stroke:black;" points="304.831,-903.951 295,-900 300.221,-909.219 304.831,-903.951"/>
</g>
<!-- 16 -->
<g id="node41" class="node"><title>16</title>
<polygon style="fill:none;stroke:black;" points="320,-432 320,-468 404,-468 404,-432 320,-432"/>
<text text-anchor="middle" x="337" y="-451.4" style="font-family:Times New Roman;font-size:14.00;">16</text>
<polyline style="fill:none;stroke:black;" points="354,-432 354,-468 "/>
<text text-anchor="middle" x="366" y="-451.4" style="font-family:Times New Roman;font-size:14.00;">L</text>
<polyline style="fill:none;stroke:black;" points="378,-432 378,-468 "/>
<text text-anchor="middle" x="391" y="-451.4" style="font-family:Times New Roman;font-size:14.00;">R</text>
</g>
<!-- 10&#45;&gt;16 -->
<g id="edge44" class="edge"><title>10&#45;&gt;16</title>
<path style="fill:none;stroke:black;" d="M330,-936C330,-908 330,-855 330,-810 330,-810 330,-810 330,-593 330,-552 344,-506 354,-478"/>
<polygon style="fill:black;stroke:black;" points="357.536,-478.585 358,-468 351.036,-475.985 357.536,-478.585"/>
</g>
<!-- 13&#45;&gt;0 -->
<g id="edge58" class="edge"><title>13&#45;&gt;0</title>
<path style="fill:none;stroke:black;" d="M163,-180C153,-195 140,-214 139,-216 125,-261 142,-317 156,-350"/>
<polygon style="fill:black;stroke:black;" points="153.036,-352.015 160,-360 159.536,-349.415 153.036,-352.015"/>
</g>
<!-- 13&#45;&gt;14 -->
<g id="edge56" class="edge"><title>13&#45;&gt;14</title>
<path style="fill:none;stroke:black;" d="M163,-144C169,-135 175,-125 181,-116"/>
<polygon style="fill:black;stroke:black;" points="183.8,-118.1 187,-108 178.2,-113.9 183.8,-118.1"/>
</g>
<!-- 6&#45;&gt;12 -->
<g id="edge30" class="edge"><title>6&#45;&gt;12</title>
<path style="fill:none;stroke:black;" d="M113,-504C118,-496 123,-486 129,-477"/>
<polygon style="fill:black;stroke:black;" points="132.203,-478.441 134,-468 126.084,-475.042 132.203,-478.441"/>
</g>
<!-- 6&#45;&gt;13 -->
<g id="edge28" class="edge"><title>6&#45;&gt;13</title>
<path style="fill:none;stroke:black;" d="M80,-504C82,-485 86,-456 89,-432 100,-335 98,-309 128,-216 130,-207 134,-198 138,-189"/>
<polygon style="fill:black;stroke:black;" points="141.137,-190.56 142,-180 134.74,-187.717 141.137,-190.56"/>
</g>
<!-- 15&#45;&gt;4 -->
<g id="edge66" class="edge"><title>15&#45;&gt;4</title>
<path style="fill:none;stroke:black;" d="M210,-504C206,-474 198,-412 190,-360 187,-343 184,-340 183,-324 181,-308 182,-303 183,-288 183,-280 183,-270 183,-262"/>
<polygon style="fill:black;stroke:black;" points="186.488,-262.299 184,-252 179.522,-261.602 186.488,-262.299"/>
</g>
<!-- 15&#45;&gt;16 -->
<g id="edge64" class="edge"><title>15&#45;&gt;16</title>
<path style="fill:none;stroke:black;" d="M199,-504C263,-460 305,-507 369,-473"/>
<polygon style="fill:black;stroke:black;" points="370.958,-475.916 378,-468 367.559,-469.797 370.958,-475.916"/>
</g>
<!-- 7&#45;&gt;8 -->
<g id="edge34" class="edge"><title>7&#45;&gt;8</title>
<path style="fill:none;stroke:black;" d="M246,-1080C250,-1072 255,-1062 260,-1053"/>
<polygon style="fill:black;stroke:black;" points="263.137,-1054.56 264,-1044 256.74,-1051.72 263.137,-1054.56"/>
</g>
<!-- 7&#45;&gt;11 -->
<g id="edge32" class="edge"><title>7&#45;&gt;11</title>
<path style="fill:none;stroke:black;" d="M208,-1080C206,-1069 204,-1056 202,-1044 194,-997 185,-943 180,-910"/>
<polygon style="fill:black;stroke:black;" points="183.478,-909.602 179,-900 176.512,-910.299 183.478,-909.602"/>
</g>
<!-- 11&#45;&gt;6 -->
<g id="edge50" class="edge"><title>11&#45;&gt;6</title>
<path style="fill:none;stroke:black;" d="M164,-864C144,-830 101,-754 85,-684 74,-637 71,-623 81,-576 82,-567 85,-558 89,-549"/>
<polygon style="fill:black;stroke:black;" points="92.1369,-550.56 93,-540 85.7402,-547.717 92.1369,-550.56"/>
</g>
<!-- 11&#45;&gt;15 -->
<g id="edge48" class="edge"><title>11&#45;&gt;15</title>
<path style="fill:none;stroke:black;" d="M153,-864C156,-833 165,-770 181,-720 186,-703 192,-700 197,-684 209,-638 211,-583 212,-550"/>
<polygon style="fill:black;stroke:black;" points="215.5,-550 212,-540 208.5,-550 215.5,-550"/>
</g>
<!-- 18&#45;&gt;19 -->
<g id="edge76" class="edge"><title>18&#45;&gt;19</title>
<path style="fill:none;stroke:black;" d="M138,-684C117,-716 76,-782 76,-809 76,-1026 76,-1026 76,-1026 76,-1050 107,-1108 128,-1143"/>
<polygon style="fill:black;stroke:black;" points="125.084,-1144.96 133,-1152 131.203,-1141.56 125.084,-1144.96"/>
</g>
<!-- 18&#45;&gt;5 -->
<g id="edge78" class="edge"><title>18&#45;&gt;5</title>
<path style="fill:none;stroke:black;" d="M169,-648C166,-640 163,-631 161,-622"/>
<polygon style="fill:black;stroke:black;" points="164.226,-620.573 158,-612 157.521,-622.584 164.226,-620.573"/>
</g>
<!-- 16&#45;&gt;7 -->
<g id="edge70" class="edge"><title>16&#45;&gt;7</title>
<path style="fill:none;stroke:black;" d="M393,-468C396,-513 406,-635 406,-737 406,-954 406,-954 406,-954 406,-1040 317,-1016 257,-1073"/>
<polygon style="fill:black;stroke:black;" points="254.596,-1070.45 250,-1080 259.546,-1075.4 254.596,-1070.45"/>
</g>
<!-- 17 -->
<g id="node51" class="node"><title>17</title>
<polygon style="fill:none;stroke:black;" points="195,-0 195,-36 279,-36 279,-0 195,-0"/>
<text text-anchor="middle" x="212" y="-19.4" style="font-family:Times New Roman;font-size:14.00;">17</text>
<polyline style="fill:none;stroke:black;" points="229,-0 229,-36 "/>
<text text-anchor="middle" x="241" y="-19.4" style="font-family:Times New Roman;font-size:14.00;">L</text>
<polyline style="fill:none;stroke:black;" points="253,-0 253,-36 "/>
<text text-anchor="middle" x="266" y="-19.4" style="font-family:Times New Roman;font-size:14.00;">R</text>
</g>
<!-- 16&#45;&gt;17 -->
<g id="edge68" class="edge"><title>16&#45;&gt;17</title>
<path style="fill:none;stroke:black;" d="M367,-432C368,-404 370,-351 370,-306 370,-306 370,-306 370,-161 370,-120 371,-104 346,-72 326,-48 308,-56 287,-42"/>
<polygon style="fill:black;stroke:black;" points="289.1,-39.2 279,-36 284.9,-44.8 289.1,-39.2"/>
</g>
<!-- 14&#45;&gt;1 -->
<g id="edge62" class="edge"><title>14&#45;&gt;1</title>
<path style="fill:none;stroke:black;" d="M206,-108C214,-133 226,-177 231,-216 232,-231 231,-236 231,-252 231,-260 231,-269 230,-278"/>
<polygon style="fill:black;stroke:black;" points="226.5,-278 230,-288 233.5,-278 226.5,-278"/>
</g>
<!-- 14&#45;&gt;17 -->
<g id="edge60" class="edge"><title>14&#45;&gt;17</title>
<path style="fill:none;stroke:black;" d="M187,-72C201,-56 209,-54 222,-43"/>
<polygon style="fill:black;stroke:black;" points="224.404,-45.546 229,-36 219.454,-40.5962 224.404,-45.546"/>
</g>
<!-- 17&#45;&gt;3 -->
<g id="edge74" class="edge"><title>17&#45;&gt;3</title>
<path style="fill:none;stroke:black;" d="M277,-36C295,-68 332,-135 332,-161 332,-306 332,-306 332,-306 332,-403 292,-424 292,-522 292,-666 292,-666 292,-666 292,-707 277,-753 265,-783"/>
<polygon style="fill:black;stroke:black;" points="261.863,-781.44 261,-792 268.26,-784.283 261.863,-781.44"/>
</g>
<!-- 17&#45;&gt;18 -->
<g id="edge72" class="edge"><title>17&#45;&gt;18</title>
<path style="fill:none;stroke:black;" d="M229,-36C188,-66 165,-48 120,-72 61,-102 1,-94 0,-161 0,-522 0,-522 0,-522 0,-575 37,-580 81,-612 109,-633 127,-624 154,-642"/>
<polygon style="fill:black;stroke:black;" points="151.9,-644.8 162,-648 156.1,-639.2 151.9,-644.8"/>
</g>
</g>
</svg>
