<?xml version="1.0" encoding="UTF-8" standalone="no"?>
<!DOCTYPE svg PUBLIC "-//W3C//DTD SVG 1.0//EN"
 "http://www.w3.org/TR/2001/REC-SVG-20010904/DTD/svg10.dtd" [
 <!ATTLIST svg xmlns:xlink CDATA #FIXED "http://www.w3.org/1999/xlink">
]>
<!-- Generated by Graphviz version 2.20.2 (Tue Mar &#160;2 19:03:41 UTC 2010)
     For user: (papa) papa,,, -->
<!-- Title: unix Pages: 1 -->
<svg width="497pt" height="1290pt"
 viewBox="0.00 0.00 497.00 1290.00" xmlns="http://www.w3.org/2000/svg" xmlns:xlink="http://www.w3.org/1999/xlink">
<g id="graph0" class="graph" transform="scale(1 1) rotate(0) translate(4 1286)">
<title>unix</title>
<polygon style="fill:white;stroke:white;" points="-4,4 -4,-1286 493,-1286 493,4 -4,4"/>
<!-- X -->
<g id="node1" class="node"><title>X</title>
<polygon style="fill:none;stroke:black;" points="364,-1238 364,-1274 418,-1274 418,-1238 364,-1238"/>
<text text-anchor="middle" x="391" y="-1257.4" style="font-family:Times New Roman;font-size:14.00;">X</text>
</g>
<!-- 19 -->
<g id="node3" class="node"><title>19</title>
<polygon style="fill:none;stroke:black;" points="345,-1166 345,-1202 429,-1202 429,-1166 345,-1166"/>
<text text-anchor="middle" x="362" y="-1185.4" style="font-family:Times New Roman;font-size:14.00;">19</text>
<polyline style="fill:none;stroke:black;" points="379,-1166 379,-1202 "/>
<text text-anchor="middle" x="391" y="-1185.4" style="font-family:Times New Roman;font-size:14.00;">L</text>
<polyline style="fill:none;stroke:black;" points="403,-1166 403,-1202 "/>
<text text-anchor="middle" x="416" y="-1185.4" style="font-family:Times New Roman;font-size:14.00;">R</text>
</g>
<!-- X&#45;&gt;19 -->
<g id="edge2" class="edge"><title>X&#45;&gt;19</title>
<path style="fill:none;stroke:black;" d="M391,-1238C391,-1230 391,-1221 391,-1212"/>
<polygon style="fill:black;stroke:black;" points="394.5,-1212 391,-1202 387.5,-1212 394.5,-1212"/>
</g>
<!-- 19&#45;&gt;X -->
<g id="edge80" class="edge"><title>19&#45;&gt;X</title>
<path style="fill:none;stroke:black;" d="M391,-1165C391,-1148 417,-1153 429,-1166 462,-1200 454,-1241 418,-1274 413,-1278 405,-1282 399,-1282"/>
<polygon style="fill:black;stroke:black;" points="400.831,-1278.95 391,-1275 396.221,-1284.22 400.831,-1278.95"/>
</g>
<!-- 7 -->
<g id="node31" class="node"><title>7</title>
<polygon style="fill:none;stroke:black;" points="303,-1094 303,-1130 378,-1130 378,-1094 303,-1094"/>
<text text-anchor="middle" x="315" y="-1113.4" style="font-family:Times New Roman;font-size:14.00;">7</text>
<polyline style="fill:none;stroke:black;" points="328,-1094 328,-1130 "/>
<text text-anchor="middle" x="340" y="-1113.4" style="font-family:Times New Roman;font-size:14.00;">L</text>
<polyline style="fill:none;stroke:black;" points="352,-1094 352,-1130 "/>
<text text-anchor="middle" x="365" y="-1113.4" style="font-family:Times New Roman;font-size:14.00;">R</text>
</g>
<!-- 19&#45;&gt;7 -->
<g id="edge82" class="edge"><title>19&#45;&gt;7</title>
<path style="fill:none;stroke:black;" d="M416,-1166C416,-1132 356,-1159 343,-1140"/>
<polygon style="fill:black;stroke:black;" points="346.226,-1138.57 340,-1130 339.521,-1140.58 346.226,-1138.57"/>
</g>
<!-- 0 -->
<g id="node4" class="node"><title>0</title>
<polygon style="fill:none;stroke:black;" points="168,-374 168,-410 243,-410 243,-374 168,-374"/>
<text text-anchor="middle" x="180" y="-393.4" style="font-family:Times New Roman;font-size:14.00;">0</text>
<polyline style="fill:none;stroke:black;" points="193,-374 193,-410 "/>
<text text-anchor="middle" x="205" y="-393.4" style="font-family:Times New Roman;font-size:14.00;">L</text>
<polyline style="fill:none;stroke:black;" points="217,-374 217,-410 "/>
<text text-anchor="middle" x="230" y="-393.4" style="font-family:Times New Roman;font-size:14.00;">R</text>
</g>
<!-- 1 -->
<g id="node6" class="node"><title>1</title>
<polygon style="fill:none;stroke:black;" points="63,-302 63,-338 138,-338 138,-302 63,-302"/>
<text text-anchor="middle" x="75" y="-321.4" style="font-family:Times New Roman;font-size:14.00;">1</text>
<polyline style="fill:none;stroke:black;" points="88,-302 88,-338 "/>
<text text-anchor="middle" x="100" y="-321.4" style="font-family:Times New Roman;font-size:14.00;">L</text>
<polyline style="fill:none;stroke:black;" points="112,-302 112,-338 "/>
<text text-anchor="middle" x="125" y="-321.4" style="font-family:Times New Roman;font-size:14.00;">R</text>
</g>
<!-- 0&#45;&gt;1 -->
<g id="edge4" class="edge"><title>0&#45;&gt;1</title>
<path style="fill:none;stroke:black;" d="M205,-374C205,-339 142,-368 128,-348"/>
<polygon style="fill:black;stroke:black;" points="131.226,-346.573 125,-338 124.521,-348.584 131.226,-346.573"/>
</g>
<!-- 12 -->
<g id="node8" class="node"><title>12</title>
<polygon style="fill:none;stroke:black;" points="168,-446 168,-482 252,-482 252,-446 168,-446"/>
<text text-anchor="middle" x="185" y="-465.4" style="font-family:Times New Roman;font-size:14.00;">12</text>
<polyline style="fill:none;stroke:black;" points="202,-446 202,-482 "/>
<text text-anchor="middle" x="214" y="-465.4" style="font-family:Times New Roman;font-size:14.00;">L</text>
<polyline style="fill:none;stroke:black;" points="226,-446 226,-482 "/>
<text text-anchor="middle" x="239" y="-465.4" style="font-family:Times New Roman;font-size:14.00;">R</text>
</g>
<!-- 0&#45;&gt;12 -->
<g id="edge6" class="edge"><title>0&#45;&gt;12</title>
<path style="fill:none;stroke:black;" d="M230,-373C230,-367 238,-370 242,-374 265,-396 249,-413 252,-446 253,-461 262,-470 252,-482 251,-483 250,-484 249,-484"/>
<polygon style="fill:black;stroke:black;" points="249.299,-480.512 239,-483 248.602,-487.478 249.299,-480.512"/>
</g>
<!-- 4 -->
<g id="node10" class="node"><title>4</title>
<polygon style="fill:none;stroke:black;" points="128,-230 128,-266 203,-266 203,-230 128,-230"/>
<text text-anchor="middle" x="140" y="-249.4" style="font-family:Times New Roman;font-size:14.00;">4</text>
<polyline style="fill:none;stroke:black;" points="153,-230 153,-266 "/>
<text text-anchor="middle" x="165" y="-249.4" style="font-family:Times New Roman;font-size:14.00;">L</text>
<polyline style="fill:none;stroke:black;" points="177,-230 177,-266 "/>
<text text-anchor="middle" x="190" y="-249.4" style="font-family:Times New Roman;font-size:14.00;">R</text>
</g>
<!-- 1&#45;&gt;4 -->
<g id="edge8" class="edge"><title>1&#45;&gt;4</title>
<path style="fill:none;stroke:black;" d="M100,-302C100,-262 174,-300 188,-276"/>
<polygon style="fill:black;stroke:black;" points="191.471,-276.492 190,-266 184.607,-275.119 191.471,-276.492"/>
</g>
<!-- 9 -->
<g id="node12" class="node"><title>9</title>
<polygon style="fill:none;stroke:black;" points="272,-734 272,-770 347,-770 347,-734 272,-734"/>
<text text-anchor="middle" x="284" y="-753.4" style="font-family:Times New Roman;font-size:14.00;">9</text>
<polyline style="fill:none;stroke:black;" points="297,-734 297,-770 "/>
<text text-anchor="middle" x="309" y="-753.4" style="font-family:Times New Roman;font-size:14.00;">L</text>
<polyline style="fill:none;stroke:black;" points="321,-734 321,-770 "/>
<text text-anchor="middle" x="334" y="-753.4" style="font-family:Times New Roman;font-size:14.00;">R</text>
</g>
<!-- 1&#45;&gt;9 -->
<g id="edge10" class="edge"><title>1&#45;&gt;9</title>
<path style="fill:none;stroke:black;" d="M125,-301C125,-295 133,-298 137,-302 147,-313 139,-322 137,-338 129,-395 102,-405 102,-463 102,-608 102,-608 102,-608 102,-619 111,-619 121,-626 132,-633 338,-722 346,-734 354,-747 357,-758 346,-770 337,-778 322,-784 314,-781"/>
<polygon style="fill:black;stroke:black;" points="316.916,-779.042 309,-772 310.797,-782.441 316.916,-779.042"/>
</g>
<!-- 12&#45;&gt;0 -->
<g id="edge54" class="edge"><title>12&#45;&gt;0</title>
<path style="fill:none;stroke:black;" d="M239,-446C239,-427 217,-430 208,-420"/>
<polygon style="fill:black;stroke:black;" points="211.226,-418.573 205,-410 204.521,-420.584 211.226,-418.573"/>
</g>
<!-- 14 -->
<g id="node46" class="node"><title>14</title>
<polygon style="fill:none;stroke:black;" points="210,-86 210,-122 294,-122 294,-86 210,-86"/>
<text text-anchor="middle" x="227" y="-105.4" style="font-family:Times New Roman;font-size:14.00;">14</text>
<polyline style="fill:none;stroke:black;" points="244,-86 244,-122 "/>
<text text-anchor="middle" x="256" y="-105.4" style="font-family:Times New Roman;font-size:14.00;">L</text>
<polyline style="fill:none;stroke:black;" points="268,-86 268,-122 "/>
<text text-anchor="middle" x="281" y="-105.4" style="font-family:Times New Roman;font-size:14.00;">R</text>
</g>
<!-- 12&#45;&gt;14 -->
<g id="edge52" class="edge"><title>12&#45;&gt;14</title>
<path style="fill:none;stroke:black;" d="M214,-446C214,-423 239,-430 251,-410 270,-374 270,-360 270,-320 270,-320 270,-320 270,-248 270,-195 258,-180 256,-132"/>
<polygon style="fill:black;stroke:black;" points="259.5,-132 256,-122 252.5,-132 259.5,-132"/>
</g>
<!-- 10 -->
<g id="node22" class="node"><title>10</title>
<polygon style="fill:none;stroke:black;" points="305,-950 305,-986 389,-986 389,-950 305,-950"/>
<text text-anchor="middle" x="322" y="-969.4" style="font-family:Times New Roman;font-size:14.00;">10</text>
<polyline style="fill:none;stroke:black;" points="339,-950 339,-986 "/>
<text text-anchor="middle" x="351" y="-969.4" style="font-family:Times New Roman;font-size:14.00;">L</text>
<polyline style="fill:none;stroke:black;" points="363,-950 363,-986 "/>
<text text-anchor="middle" x="376" y="-969.4" style="font-family:Times New Roman;font-size:14.00;">R</text>
</g>
<!-- 4&#45;&gt;10 -->
<g id="edge20" class="edge"><title>4&#45;&gt;10</title>
<path style="fill:none;stroke:black;" d="M165,-229C165,-212 186,-224 202,-230 345,-282 389,-315 469,-446 490,-480 488,-494 488,-535 488,-608 488,-608 488,-608 488,-629 405,-971 389,-986 388,-987 387,-987 386,-988"/>
<polygon style="fill:black;stroke:black;" points="386,-984.5 376,-988 386,-991.5 386,-984.5"/>
</g>
<!-- 13 -->
<g id="node24" class="node"><title>13</title>
<polygon style="fill:none;stroke:black;" points="139,-158 139,-194 223,-194 223,-158 139,-158"/>
<text text-anchor="middle" x="156" y="-177.4" style="font-family:Times New Roman;font-size:14.00;">13</text>
<polyline style="fill:none;stroke:black;" points="173,-158 173,-194 "/>
<text text-anchor="middle" x="185" y="-177.4" style="font-family:Times New Roman;font-size:14.00;">L</text>
<polyline style="fill:none;stroke:black;" points="197,-158 197,-194 "/>
<text text-anchor="middle" x="210" y="-177.4" style="font-family:Times New Roman;font-size:14.00;">R</text>
</g>
<!-- 4&#45;&gt;13 -->
<g id="edge22" class="edge"><title>4&#45;&gt;13</title>
<path style="fill:none;stroke:black;" d="M190,-230C190,-215 202,-213 207,-204"/>
<polygon style="fill:black;stroke:black;" points="210.479,-204.584 210,-194 203.774,-202.573 210.479,-204.584"/>
</g>
<!-- 2 -->
<g id="node13" class="node"><title>2</title>
<polygon style="fill:none;stroke:black;" points="245,-878 245,-914 320,-914 320,-878 245,-878"/>
<text text-anchor="middle" x="257" y="-897.4" style="font-family:Times New Roman;font-size:14.00;">2</text>
<polyline style="fill:none;stroke:black;" points="270,-878 270,-914 "/>
<text text-anchor="middle" x="282" y="-897.4" style="font-family:Times New Roman;font-size:14.00;">L</text>
<polyline style="fill:none;stroke:black;" points="294,-878 294,-914 "/>
<text text-anchor="middle" x="307" y="-897.4" style="font-family:Times New Roman;font-size:14.00;">R</text>
</g>
<!-- 9&#45;&gt;2 -->
<g id="edge42" class="edge"><title>9&#45;&gt;2</title>
<path style="fill:none;stroke:black;" d="M334,-733C334,-712 351,-705 346,-770 339,-834 368,-871 319,-914 310,-921 295,-927 287,-924"/>
<polygon style="fill:black;stroke:black;" points="289.916,-922.042 282,-915 283.797,-925.441 289.916,-922.042"/>
</g>
<!-- 18 -->
<g id="node38" class="node"><title>18</title>
<polygon style="fill:none;stroke:black;" points="287,-662 287,-698 371,-698 371,-662 287,-662"/>
<text text-anchor="middle" x="304" y="-681.4" style="font-family:Times New Roman;font-size:14.00;">18</text>
<polyline style="fill:none;stroke:black;" points="321,-662 321,-698 "/>
<text text-anchor="middle" x="333" y="-681.4" style="font-family:Times New Roman;font-size:14.00;">L</text>
<polyline style="fill:none;stroke:black;" points="345,-662 345,-698 "/>
<text text-anchor="middle" x="358" y="-681.4" style="font-family:Times New Roman;font-size:14.00;">R</text>
</g>
<!-- 9&#45;&gt;18 -->
<g id="edge40" class="edge"><title>9&#45;&gt;18</title>
<path style="fill:none;stroke:black;" d="M309,-734C309,-718 324,-717 330,-708"/>
<polygon style="fill:black;stroke:black;" points="333.479,-708.584 333,-698 326.774,-706.573 333.479,-708.584"/>
</g>
<!-- 3 -->
<g id="node15" class="node"><title>3</title>
<polygon style="fill:none;stroke:black;" points="218,-806 218,-842 293,-842 293,-806 218,-806"/>
<text text-anchor="middle" x="230" y="-825.4" style="font-family:Times New Roman;font-size:14.00;">3</text>
<polyline style="fill:none;stroke:black;" points="243,-806 243,-842 "/>
<text text-anchor="middle" x="255" y="-825.4" style="font-family:Times New Roman;font-size:14.00;">L</text>
<polyline style="fill:none;stroke:black;" points="267,-806 267,-842 "/>
<text text-anchor="middle" x="280" y="-825.4" style="font-family:Times New Roman;font-size:14.00;">R</text>
</g>
<!-- 2&#45;&gt;3 -->
<g id="edge12" class="edge"><title>2&#45;&gt;3</title>
<path style="fill:none;stroke:black;" d="M282,-878C282,-862 265,-861 258,-852"/>
<polygon style="fill:black;stroke:black;" points="261.226,-850.573 255,-842 254.521,-852.584 261.226,-850.573"/>
</g>
<!-- 8 -->
<g id="node17" class="node"><title>8</title>
<polygon style="fill:none;stroke:black;" points="265,-1022 265,-1058 340,-1058 340,-1022 265,-1022"/>
<text text-anchor="middle" x="277" y="-1041.4" style="font-family:Times New Roman;font-size:14.00;">8</text>
<polyline style="fill:none;stroke:black;" points="290,-1022 290,-1058 "/>
<text text-anchor="middle" x="302" y="-1041.4" style="font-family:Times New Roman;font-size:14.00;">L</text>
<polyline style="fill:none;stroke:black;" points="314,-1022 314,-1058 "/>
<text text-anchor="middle" x="327" y="-1041.4" style="font-family:Times New Roman;font-size:14.00;">R</text>
</g>
<!-- 2&#45;&gt;8 -->
<g id="edge14" class="edge"><title>2&#45;&gt;8</title>
<path style="fill:none;stroke:black;" d="M307,-877C307,-871 315,-874 319,-878 329,-889 323,-898 319,-914 313,-932 301,-931 296,-950 291,-965 289,-971 296,-986 306,-1008 328,-999 339,-1022 345,-1036 350,-1046 339,-1058 330,-1066 315,-1071 307,-1068"/>
<polygon style="fill:black;stroke:black;" points="309.916,-1066.04 302,-1059 303.797,-1069.44 309.916,-1066.04"/>
</g>
<!-- 3&#45;&gt;9 -->
<g id="edge18" class="edge"><title>3&#45;&gt;9</title>
<path style="fill:none;stroke:black;" d="M280,-806C280,-781 319,-793 331,-780"/>
<polygon style="fill:black;stroke:black;" points="334.479,-780.584 334,-770 327.774,-778.573 334.479,-780.584"/>
</g>
<!-- 5 -->
<g id="node19" class="node"><title>5</title>
<polygon style="fill:none;stroke:black;" points="130,-590 130,-626 205,-626 205,-590 130,-590"/>
<text text-anchor="middle" x="142" y="-609.4" style="font-family:Times New Roman;font-size:14.00;">5</text>
<polyline style="fill:none;stroke:black;" points="155,-590 155,-626 "/>
<text text-anchor="middle" x="167" y="-609.4" style="font-family:Times New Roman;font-size:14.00;">L</text>
<polyline style="fill:none;stroke:black;" points="179,-590 179,-626 "/>
<text text-anchor="middle" x="192" y="-609.4" style="font-family:Times New Roman;font-size:14.00;">R</text>
</g>
<!-- 3&#45;&gt;5 -->
<g id="edge16" class="edge"><title>3&#45;&gt;5</title>
<path style="fill:none;stroke:black;" d="M255,-806C255,-786 239,-787 230,-770 197,-712 170,-697 167,-636"/>
<polygon style="fill:black;stroke:black;" points="170.5,-636 167,-626 163.5,-636 170.5,-636"/>
</g>
<!-- 8&#45;&gt;10 -->
<g id="edge38" class="edge"><title>8&#45;&gt;10</title>
<path style="fill:none;stroke:black;" d="M327,-1022C327,-1006 342,-1005 348,-996"/>
<polygon style="fill:black;stroke:black;" points="351.479,-996.584 351,-986 344.774,-994.573 351.479,-996.584"/>
</g>
<!-- 11 -->
<g id="node33" class="node"><title>11</title>
<polygon style="fill:none;stroke:black;" points="81,-878 81,-914 165,-914 165,-878 81,-878"/>
<text text-anchor="middle" x="98" y="-897.4" style="font-family:Times New Roman;font-size:14.00;">11</text>
<polyline style="fill:none;stroke:black;" points="115,-878 115,-914 "/>
<text text-anchor="middle" x="127" y="-897.4" style="font-family:Times New Roman;font-size:14.00;">L</text>
<polyline style="fill:none;stroke:black;" points="139,-878 139,-914 "/>
<text text-anchor="middle" x="152" y="-897.4" style="font-family:Times New Roman;font-size:14.00;">R</text>
</g>
<!-- 8&#45;&gt;11 -->
<g id="edge36" class="edge"><title>8&#45;&gt;11</title>
<path style="fill:none;stroke:black;" d="M302,-1022C302,-1002 163,-949 133,-923"/>
<polygon style="fill:black;stroke:black;" points="135.459,-920.379 127,-914 129.635,-924.262 135.459,-920.379"/>
</g>
<!-- 6 -->
<g id="node26" class="node"><title>6</title>
<polygon style="fill:none;stroke:black;" points="0,-518 0,-554 75,-554 75,-518 0,-518"/>
<text text-anchor="middle" x="12" y="-537.4" style="font-family:Times New Roman;font-size:14.00;">6</text>
<polyline style="fill:none;stroke:black;" points="25,-518 25,-554 "/>
<text text-anchor="middle" x="37" y="-537.4" style="font-family:Times New Roman;font-size:14.00;">L</text>
<polyline style="fill:none;stroke:black;" points="49,-518 49,-554 "/>
<text text-anchor="middle" x="62" y="-537.4" style="font-family:Times New Roman;font-size:14.00;">R</text>
</g>
<!-- 5&#45;&gt;6 -->
<g id="edge24" class="edge"><title>5&#45;&gt;6</title>
<path style="fill:none;stroke:black;" d="M167,-590C167,-534 54,-603 39,-564"/>
<polygon style="fill:black;stroke:black;" points="42.3933,-563.119 37,-554 35.5292,-564.492 42.3933,-563.119"/>
</g>
<!-- 15 -->
<g id="node28" class="node"><title>15</title>
<polygon style="fill:none;stroke:black;" points="154,-518 154,-554 238,-554 238,-518 154,-518"/>
<text text-anchor="middle" x="171" y="-537.4" style="font-family:Times New Roman;font-size:14.00;">15</text>
<polyline style="fill:none;stroke:black;" points="188,-518 188,-554 "/>
<text text-anchor="middle" x="200" y="-537.4" style="font-family:Times New Roman;font-size:14.00;">L</text>
<polyline style="fill:none;stroke:black;" points="212,-518 212,-554 "/>
<text text-anchor="middle" x="225" y="-537.4" style="font-family:Times New Roman;font-size:14.00;">R</text>
</g>
<!-- 5&#45;&gt;15 -->
<g id="edge26" class="edge"><title>5&#45;&gt;15</title>
<path style="fill:none;stroke:black;" d="M192,-590C192,-577 197,-572 199,-564"/>
<polygon style="fill:black;stroke:black;" points="202.488,-564.299 200,-554 195.522,-563.602 202.488,-564.299"/>
</g>
<!-- 10&#45;&gt;2 -->
<g id="edge46" class="edge"><title>10&#45;&gt;2</title>
<path style="fill:none;stroke:black;" d="M376,-950C376,-919 323,-941 310,-924"/>
<polygon style="fill:black;stroke:black;" points="313.226,-922.573 307,-914 306.521,-924.584 313.226,-922.573"/>
</g>
<!-- 16 -->
<g id="node41" class="node"><title>16</title>
<polygon style="fill:none;stroke:black;" points="376,-446 376,-482 460,-482 460,-446 376,-446"/>
<text text-anchor="middle" x="393" y="-465.4" style="font-family:Times New Roman;font-size:14.00;">16</text>
<polyline style="fill:none;stroke:black;" points="410,-446 410,-482 "/>
<text text-anchor="middle" x="422" y="-465.4" style="font-family:Times New Roman;font-size:14.00;">L</text>
<polyline style="fill:none;stroke:black;" points="434,-446 434,-482 "/>
<text text-anchor="middle" x="447" y="-465.4" style="font-family:Times New Roman;font-size:14.00;">R</text>
</g>
<!-- 10&#45;&gt;16 -->
<g id="edge44" class="edge"><title>10&#45;&gt;16</title>
<path style="fill:none;stroke:black;" d="M351,-950C351,-826 412,-803 412,-680 412,-680 412,-680 412,-608 412,-555 421,-540 422,-492"/>
<polygon style="fill:black;stroke:black;" points="425.5,-492 422,-482 418.5,-492 425.5,-492"/>
</g>
<!-- 13&#45;&gt;0 -->
<g id="edge58" class="edge"><title>13&#45;&gt;0</title>
<path style="fill:none;stroke:black;" d="M210,-157C210,-151 218,-153 223,-158 257,-191 239,-325 242,-374 242,-389 252,-398 242,-410 242,-410 241,-411 240,-411"/>
<polygon style="fill:black;stroke:black;" points="240,-407.5 230,-411 240,-414.5 240,-407.5"/>
</g>
<!-- 13&#45;&gt;14 -->
<g id="edge56" class="edge"><title>13&#45;&gt;14</title>
<path style="fill:none;stroke:black;" d="M185,-158C185,-116 265,-158 279,-132"/>
<polygon style="fill:black;stroke:black;" points="282.471,-132.492 281,-122 275.607,-131.119 282.471,-132.492"/>
</g>
<!-- 6&#45;&gt;12 -->
<g id="edge30" class="edge"><title>6&#45;&gt;12</title>
<path style="fill:none;stroke:black;" d="M62,-518C62,-452 197,-540 213,-492"/>
<polygon style="fill:black;stroke:black;" points="216.488,-492.299 214,-482 209.522,-491.602 216.488,-492.299"/>
</g>
<!-- 6&#45;&gt;13 -->
<g id="edge28" class="edge"><title>6&#45;&gt;13</title>
<path style="fill:none;stroke:black;" d="M37,-518C37,-461 35,-448 35,-392 35,-392 35,-392 35,-320 35,-265 75,-263 119,-230 142,-212 176,-223 183,-204"/>
<polygon style="fill:black;stroke:black;" points="186.471,-204.492 185,-194 179.607,-203.119 186.471,-204.492"/>
</g>
<!-- 15&#45;&gt;4 -->
<g id="edge66" class="edge"><title>15&#45;&gt;4</title>
<path style="fill:none;stroke:black;" d="M225,-518C225,-484 176,-510 159,-482 111,-402 161,-365 165,-276"/>
<polygon style="fill:black;stroke:black;" points="168.5,-276 165,-266 161.5,-276 168.5,-276"/>
</g>
<!-- 15&#45;&gt;16 -->
<g id="edge64" class="edge"><title>15&#45;&gt;16</title>
<path style="fill:none;stroke:black;" d="M200,-518C200,-466 413,-527 444,-492"/>
<polygon style="fill:black;stroke:black;" points="447.479,-492.584 447,-482 440.774,-490.573 447.479,-492.584"/>
</g>
<!-- 7&#45;&gt;8 -->
<g id="edge34" class="edge"><title>7&#45;&gt;8</title>
<path style="fill:none;stroke:black;" d="M365,-1094C365,-1074 339,-1078 330,-1068"/>
<polygon style="fill:black;stroke:black;" points="333.226,-1066.57 327,-1058 326.521,-1068.58 333.226,-1066.57"/>
</g>
<!-- 7&#45;&gt;11 -->
<g id="edge32" class="edge"><title>7&#45;&gt;11</title>
<path style="fill:none;stroke:black;" d="M340,-1094C340,-1053 290,-1080 256,-1058 192,-1016 155,-994 152,-924"/>
<polygon style="fill:black;stroke:black;" points="155.5,-924 152,-914 148.5,-924 155.5,-924"/>
</g>
<!-- 11&#45;&gt;6 -->
<g id="edge50" class="edge"><title>11&#45;&gt;6</title>
<path style="fill:none;stroke:black;" d="M152,-878C152,-793 109,-780 88,-698 72,-638 63,-621 62,-564"/>
<polygon style="fill:black;stroke:black;" points="65.5001,-564 62,-554 58.5001,-564 65.5001,-564"/>
</g>
<!-- 11&#45;&gt;15 -->
<g id="edge48" class="edge"><title>11&#45;&gt;15</title>
<path style="fill:none;stroke:black;" d="M127,-878C127,-731 220,-705 225,-564"/>
<polygon style="fill:black;stroke:black;" points="228.5,-564 225,-554 221.5,-564 228.5,-564"/>
</g>
<!-- 18&#45;&gt;19 -->
<g id="edge76" class="edge"><title>18&#45;&gt;19</title>
<path style="fill:none;stroke:black;" d="M333,-661C333,-644 358,-650 371,-662 537,-814 416,-940 429,-1166 429,-1181 439,-1190 429,-1202 428,-1203 427,-1204 426,-1204"/>
<polygon style="fill:black;stroke:black;" points="426.299,-1200.51 416,-1203 425.602,-1207.48 426.299,-1200.51"/>
</g>
<!-- 18&#45;&gt;5 -->
<g id="edge78" class="edge"><title>18&#45;&gt;5</title>
<path style="fill:none;stroke:black;" d="M358,-662C358,-590 208,-690 193,-636"/>
<polygon style="fill:black;stroke:black;" points="196.478,-635.602 192,-626 189.512,-636.299 196.478,-635.602"/>
</g>
<!-- 16&#45;&gt;7 -->
<g id="edge70" class="edge"><title>16&#45;&gt;7</title>
<path style="fill:none;stroke:black;" d="M447,-445C447,-439 456,-441 460,-446 470,-457 460,-466 460,-482 452,-674 454,-723 426,-914 411,-1011 451,-1065 377,-1130 376,-1130 376,-1131 375,-1131"/>
<polygon style="fill:black;stroke:black;" points="375,-1127.5 365,-1131 375,-1134.5 375,-1127.5"/>
</g>
<!-- 17 -->
<g id="node51" class="node"><title>17</title>
<polygon style="fill:none;stroke:black;" points="294,-14 294,-50 378,-50 378,-14 294,-14"/>
<text text-anchor="middle" x="311" y="-33.4" style="font-family:Times New Roman;font-size:14.00;">17</text>
<polyline style="fill:none;stroke:black;" points="328,-14 328,-50 "/>
<text text-anchor="middle" x="340" y="-33.4" style="font-family:Times New Roman;font-size:14.00;">L</text>
<polyline style="fill:none;stroke:black;" points="352,-14 352,-50 "/>
<text text-anchor="middle" x="365" y="-33.4" style="font-family:Times New Roman;font-size:14.00;">R</text>
</g>
<!-- 16&#45;&gt;17 -->
<g id="edge68" class="edge"><title>16&#45;&gt;17</title>
<path style="fill:none;stroke:black;" d="M422,-446C422,-390 422,-376 422,-320 422,-320 422,-320 422,-176 422,-132 404,-124 386,-86 379,-73 370,-69 367,-60"/>
<polygon style="fill:black;stroke:black;" points="370.393,-59.1194 365,-50 363.529,-60.4922 370.393,-59.1194"/>
</g>
<!-- 14&#45;&gt;1 -->
<g id="edge62" class="edge"><title>14&#45;&gt;1</title>
<path style="fill:none;stroke:black;" d="M281,-85C281,-72 339,-64 294,-122 247,-180 181,-103 130,-158 97,-193 107,-219 119,-266 126,-298 160,-314 137,-338 128,-346 113,-351 105,-348"/>
<polygon style="fill:black;stroke:black;" points="107.916,-346.042 100,-339 101.797,-349.441 107.916,-346.042"/>
</g>
<!-- 14&#45;&gt;17 -->
<g id="edge60" class="edge"><title>14&#45;&gt;17</title>
<path style="fill:none;stroke:black;" d="M256,-86C256,-49 324,-82 338,-60"/>
<polygon style="fill:black;stroke:black;" points="341.471,-60.4922 340,-50 334.607,-59.1194 341.471,-60.4922"/>
</g>
<!-- 17&#45;&gt;3 -->
<g id="edge74" class="edge"><title>17&#45;&gt;3</title>
<path style="fill:none;stroke:black;" d="M365,-13C365,-8 374,-10 378,-14 388,-25 379,-34 378,-50 352,-357 288,-426 263,-734 261,-749 257,-754 263,-770 269,-789 285,-786 292,-806 297,-821 302,-830 292,-842 292,-842 291,-843 290,-843"/>
<polygon style="fill:black;stroke:black;" points="290,-839.5 280,-843 290,-846.5 290,-839.5"/>
</g>
<!-- 17&#45;&gt;18 -->
<g id="edge72" class="edge"><title>17&#45;&gt;18</title>
<path style="fill:none;stroke:black;" d="M340,-13C340,3 366,-2 378,-14 389,-25 378,-34 378,-50 375,-242 364,-289 367,-482 367,-562 370,-581 371,-662 371,-677 381,-686 371,-698 370,-699 369,-700 368,-700"/>
<polygon style="fill:black;stroke:black;" points="368.299,-696.512 358,-699 367.602,-703.478 368.299,-696.512"/>
</g>
</g>
</svg>
